# xmcd CD database file
# Copyright (C) 1993-1998 Ti Kan
#
# Track frame offsets:
#  182
#  16900
#  34497
#  53692
#  71077
#  87725
#  103977
#  120332
#  139255
#  154132
#  173942
#  190607
#  208337
#  228100
#  241242
#  256982
#  272840
#  289955
#  305032
#  322780
#
# Disc length: 4528 seconds
#
# Revision: 1
# Processed by: cddbd v1.4b41PL1 Copyright (c) Steve Scherf et al.
# Submitted via: CDWizzard Release:4.35
#
DISCID=2711ae14
DTITLE=Kenny Rogers - 20 Years Ago
DYEAR=1900
DGENRE=
TTITLE0=Crazy
TTITLE1=Lady
TTITLE2=She Believes In Me
TTITLE3=We've Got Tonight (with Sheena Easton)
TTITLE4=You Decorated My Life
TTITLE5=Green Green Grass Of Home
TTITLE6=Lucille
TTITLE7=Islands In The Stream (with Dolly Parton)
TTITLE8=Somebody's Wrong, Somebody's Right
TTITLE9=Through The Years
TTITLE10=Don't Fall In Love With A Dreamer (with Kim Carnes)
TTITLE11=Lay Down Beside Me
TTITLE12=What About Me (with Kim Carnes and James Ingram)
TTITLE13=You Are So Beautiful
TTITLE14=I Don't Need You
TTITLE15=Love Is What We Make It
TTITLE16=Desperado
TTITLE17='Til I Can Make It On My Own (with Dottie West)
TTITLE18=Reason To Go
TTITLE19=20 Years Ago
EXTD=
EXTT0=
EXTT1=
EXTT2=
EXTT3=
EXTT4=
EXTT5=
EXTT6=
EXTT7=
EXTT8=
EXTT9=
EXTT10=
EXTT11=
EXTT12=
EXTT13=
EXTT14=
EXTT15=
EXTT16=
EXTT17=
EXTT18=
EXTT19=
PLAYORDER=
